<?xml version="1.0" encoding="UTF-8" standalone="no"?>
<!-- Created with Inkscape (http://www.inkscape.org/) -->

<svg
   width="25.039812mm"
   height="25.039812mm"
   viewBox="0 0 25.039812 25.039812"
   version="1.1"
   id="svg1"
   inkscape:version="1.4 (e7c3feb100, 2024-10-09)"
   sodipodi:docname="cartoway-icon-blue.svg"
   xmlns:inkscape="http://www.inkscape.org/namespaces/inkscape"
   xmlns:sodipodi="http://sodipodi.sourceforge.net/DTD/sodipodi-0.dtd"
   xmlns="http://www.w3.org/2000/svg"
   xmlns:svg="http://www.w3.org/2000/svg">
  <sodipodi:namedview
     id="namedview1"
     pagecolor="#ffffff"
     bordercolor="#cccccc"
     borderopacity="1"
     inkscape:showpageshadow="0"
     inkscape:pageopacity="1"
     inkscape:pagecheckerboard="0"
     inkscape:deskcolor="#d1d1d1"
     inkscape:document-units="mm"
     inkscape:zoom="0.74208053"
     inkscape:cx="-251.32043"
     inkscape:cy="266.14362"
     inkscape:window-width="1882"
     inkscape:window-height="1061"
     inkscape:window-x="0"
     inkscape:window-y="0"
     inkscape:window-maximized="1"
     inkscape:current-layer="layer1" />
  <defs
     id="defs1">
    <clipPath
       clipPathUnits="userSpaceOnUse"
       id="clipPath63">
      <path
         d="M 0,0 H 841.89 V 595.276 H 0 Z"
         transform="translate(-347.03273,-103.76611)"
         id="path63" />
    </clipPath>
    <clipPath
       clipPathUnits="userSpaceOnUse"
       id="clipPath65">
      <path
         d="M 0,0 H 841.89 V 595.276 H 0 Z"
         transform="translate(-343.42531,-158.7269)"
         id="path65" />
    </clipPath>
  </defs>
  <g
     inkscape:label="Calque 1"
     inkscape:groupmode="layer"
     id="layer1"
     transform="translate(-171.44996,-78.052077)">
    <path
       id="path62"
       d="m 0,0 h -34.613 c -10.042,0 -18.183,8.141 -18.183,18.183 v 34.613 c 0,10.042 8.141,18.183 18.183,18.183 H 0 c 10.042,0 18.183,-8.141 18.183,-18.183 V 18.183 C 18.183,8.141 10.042,0 0,0"
       style="fill:#25417c;fill-opacity:1;fill-rule:nonzero;stroke:none"
       transform="matrix(0.35277776,0,0,-0.35277776,190.07521,103.09189)"
       clip-path="url(#clipPath63)" />
    <path
       id="path64"
       d="m 0,0 c 4.017,-0.113 6.653,-3.836 5.378,-7.757 -1.651,-5.082 -3.36,-10.145 -5.05,-15.215 -1.293,-3.881 -2.593,-7.76 -3.892,-11.639 -0.925,-2.762 -2.907,-4.321 -5.499,-4.331 -2.636,-0.01 -4.651,1.565 -5.587,4.369 -1.027,3.074 -2.072,6.142 -3.073,9.224 -0.301,0.927 -0.858,1.482 -1.783,1.784 -3.257,1.064 -6.509,2.143 -9.747,3.264 -2.141,0.741 -3.442,2.299 -3.773,4.518 -0.33,2.218 0.452,4.09 2.289,5.422 0.555,0.403 1.222,0.689 1.878,0.909 8.8,2.956 17.606,5.894 26.416,8.821 C -1.647,-0.366 -0.815,-0.208 0,0 m 2.058,-6.068 c 0.092,1.799 -1.276,2.672 -3.069,2.076 -8.876,-2.952 -17.747,-5.92 -26.626,-8.864 -1.051,-0.348 -1.814,-0.931 -1.808,-2.086 0.005,-1.148 0.746,-1.738 1.811,-2.081 3.084,-0.993 6.14,-2.073 9.225,-3.062 2.144,-0.688 3.497,-2.077 4.185,-4.205 0.986,-3.05 2.043,-6.077 3.03,-9.127 0.336,-1.04 0.847,-1.808 2.039,-1.853 1.075,-0.041 1.7,0.487 2.153,1.846 2.949,8.845 5.892,17.692 8.834,26.54 0.104,0.313 0.177,0.637 0.226,0.816"
       style="fill:#fffffc;fill-opacity:1;fill-rule:nonzero;stroke:none"
       transform="matrix(0.35277776,0,0,-0.35277776,188.80259,83.702943)"
       clip-path="url(#clipPath65)" />
  </g>
</svg>
