<?xml version="1.0" encoding="UTF-8" standalone="no"?>
<!-- Created with Inkscape (http://www.inkscape.org/) -->

<svg
   width="4.2333331mm"
   height="4.2333274mm"
   viewBox="0 0 4.2333332 4.2333275"
   version="1.1"
   id="svg1"
   inkscape:version="1.3 (0e150ed6c4, 2023-07-21)"
   sodipodi:docname="icon.svg"
   inkscape:export-filename="touch-icon-192.png"
   inkscape:export-xdpi="1152.0001"
   inkscape:export-ydpi="1152.0001"
   xmlns:inkscape="http://www.inkscape.org/namespaces/inkscape"
   xmlns:sodipodi="http://sodipodi.sourceforge.net/DTD/sodipodi-0.dtd"
   xmlns="http://www.w3.org/2000/svg"
   xmlns:svg="http://www.w3.org/2000/svg">
  <sodipodi:namedview
     id="namedview1"
     pagecolor="#ffffff"
     bordercolor="#cccccc"
     borderopacity="1"
     inkscape:showpageshadow="0"
     inkscape:pageopacity="1"
     inkscape:pagecheckerboard="0"
     inkscape:deskcolor="#d1d1d1"
     inkscape:document-units="mm"
     showgrid="true"
     inkscape:zoom="19.293987"
     inkscape:cx="17.388837"
     inkscape:cy="9.1997574"
     inkscape:window-width="1882"
     inkscape:window-height="1061"
     inkscape:window-x="0"
     inkscape:window-y="0"
     inkscape:window-maximized="1"
     inkscape:current-layer="layer1">
    <inkscape:grid
       id="grid1"
       units="px"
       originx="0"
       originy="0"
       spacingx="0.26458334"
       spacingy="0.26458335"
       empcolor="#0099e5"
       empopacity="0.30196078"
       color="#0099e5"
       opacity="0.14901961"
       empspacing="4"
       dotted="false"
       gridanglex="30"
       gridanglez="30"
       visible="true" />
  </sodipodi:namedview>
  <defs
     id="defs1" />
  <g
     inkscape:label="Calque 1"
     inkscape:groupmode="layer"
     id="layer1"
     transform="translate(-91.562477,-128.09793)">
    <path
       style="fill:none;fill-opacity:1;stroke:#ff9900;stroke-width:0.264583;stroke-dasharray:0.793749, 0.264583;stroke-dashoffset:0;stroke-opacity:1"
       d="M 91.827064,131.53751 H 95.53123"
       id="path3"
       sodipodi:nodetypes="cc" />
    <path
       style="font-weight:900;font-size:3.52777px;font-family:'Noto Sans';-inkscape-font-specification:'Noto Sans, Heavy';text-align:end;text-anchor:end;stroke-width:0.264583"
       d="m 92.985192,131.1629 c -0.296333,0 -0.532693,-0.08 -0.709082,-0.23989 -0.176389,-0.15992 -0.264583,-0.41392 -0.264583,-0.76199 0,-0.23754 0.04469,-0.43039 0.134055,-0.57856 0.08937,-0.15052 0.210491,-0.26106 0.363361,-0.33161 0.155222,-0.0729 0.33161,-0.10936 0.529165,-0.10936 0.119945,0 0.232833,0.0129 0.338666,0.0388 0.108185,0.0259 0.208139,0.0623 0.299861,0.10936 l -0.197555,0.49741 c -0.07996,-0.0353 -0.155223,-0.0635 -0.225778,-0.0847 -0.0682,-0.0211 -0.139935,-0.0317 -0.215194,-0.0317 -0.101129,0 -0.183444,0.04 -0.246944,0.11994 -0.0635,0.08 -0.09525,0.20226 -0.09525,0.36689 0,0.16933 0.03175,0.29045 0.09525,0.36336 0.06585,0.0705 0.149344,0.10583 0.250472,0.10583 0.09643,0 0.192852,-0.0153 0.289277,-0.0459 0.09878,-0.0306 0.191676,-0.0729 0.278694,-0.127 V 130.99 c -0.07996,0.0517 -0.170509,0.0941 -0.271638,0.127 -0.101129,0.0306 -0.218722,0.0459 -0.352777,0.0459 z"
       id="text1"
       aria-label="carto"
       sodipodi:nodetypes="scsccsccccssscsccccs" />
    <path
       style="font-weight:900;font-size:3.52777px;font-family:'Noto Sans';-inkscape-font-specification:'Noto Sans, Heavy';text-align:end;text-anchor:end;stroke-width:0.264583"
       d="m 95.105356,129.17676 c 0.03763,0 0.07643,0.002 0.116416,0.007 0.03998,0.005 0.06938,0.009 0.08819,0.0141 l -0.05997,0.635 c -0.02352,-0.005 -0.05292,-0.009 -0.08819,-0.0141 -0.03293,-0.005 -0.07996,-0.007 -0.14111,-0.007 -0.05645,0 -0.117595,0.008 -0.183444,0.0247 -0.0635,0.0165 -0.118769,0.0529 -0.165806,0.10936 -0.04703,0.0541 -0.07055,0.13991 -0.07055,0.25753 v 0.95955 h -0.673804 v -1.95085 h 0.500943 l 0.105833,0.31044 h 0.03175 c 0.05409,-0.0964 0.129353,-0.17756 0.225778,-0.24341 0.09878,-0.0682 0.203434,-0.10231 0.313971,-0.10231 z"
       id="text1-6"
       aria-label="route"
       sodipodi:nodetypes="cscccsccsccccccccc" />
  </g>
</svg>
