<?xml version="1.0" encoding="UTF-8" standalone="no"?>
<!-- Created with Inkscape (http://www.inkscape.org/) -->

<svg
   width="46.509521mm"
   height="46.509518mm"
   viewBox="0 0 46.509521 46.509518"
   version="1.1"
   id="svg1"
   inkscape:version="1.4 (e7c3feb100, 2024-10-09)"
   sodipodi:docname="cartoway-logo-blue.svg"
   xmlns:inkscape="http://www.inkscape.org/namespaces/inkscape"
   xmlns:sodipodi="http://sodipodi.sourceforge.net/DTD/sodipodi-0.dtd"
   xmlns="http://www.w3.org/2000/svg"
   xmlns:svg="http://www.w3.org/2000/svg">
  <sodipodi:namedview
     id="namedview1"
     pagecolor="#ffffff"
     bordercolor="#cccccc"
     borderopacity="1"
     inkscape:showpageshadow="0"
     inkscape:pageopacity="1"
     inkscape:pagecheckerboard="0"
     inkscape:deskcolor="#d1d1d1"
     inkscape:document-units="mm"
     inkscape:zoom="0.74208053"
     inkscape:cx="-174.50936"
     inkscape:cy="202.80818"
     inkscape:window-width="1882"
     inkscape:window-height="1061"
     inkscape:window-x="0"
     inkscape:window-y="0"
     inkscape:window-maximized="1"
     inkscape:current-layer="layer1" />
  <defs
     id="defs1">
    <clipPath
       clipPathUnits="userSpaceOnUse"
       id="clipPath55">
      <path
         d="M 0,0 H 841.89 V 595.276 H 0 Z"
         transform="translate(-305.81573,-451.96841)"
         id="path55" />
    </clipPath>
  </defs>
  <g
     inkscape:label="Calque 1"
     inkscape:groupmode="layer"
     id="layer1"
     transform="translate(-151.34167,-94.720831)">
    <path
       id="path51"
       d="M 197.85119,141.23035 H 151.34167 V 94.720831 h 46.50952 z"
       style="fill:#25417c;fill-opacity:1;fill-rule:nonzero;stroke:none;stroke-width:0.352778" />
    <path
       id="path52"
       d="m 160.34737,116.63788 c 1.65364,0 3.06751,-0.59118 4.00182,-1.68672 l -1.20716,-1.14929 c -0.73587,0.80616 -1.64124,1.19476 -2.69544,1.19476 -2.08773,0 -3.59668,-1.46761 -3.59668,-3.54293 0,-2.07533 1.50895,-3.54294 3.59668,-3.54294 1.0542,0 1.95957,0.38861 2.69544,1.18236 l 1.20716,-1.13688 c -0.93431,-1.09554 -2.34818,-1.68672 -3.98942,-1.68672 -3.09232,0 -5.39915,2.17454 -5.39915,5.18418 0,3.00963 2.30683,5.18418 5.38675,5.18418 z m 8.56692,-7.92097 c -1.2361,0 -2.43086,0.31833 -3.25355,0.95085 l 0.70693,1.31051 c 0.57464,-0.47542 1.46761,-0.76481 2.33164,-0.76481 1.28158,0 1.9141,0.62012 1.9141,1.67018 v 0.11576 h -1.98851 c -2.33164,0 -3.19567,1.00872 -3.19567,2.2903 0,1.33945 1.10794,2.3027 2.86494,2.3027 1.15342,0 1.98851,-0.37207 2.42259,-1.03353 v 0.93431 h 1.69912 V 111.987 c 0,-2.22002 -1.28157,-3.27009 -3.50159,-3.27009 z m -0.24392,6.56498 c -0.9219,0 -1.46761,-0.41755 -1.46761,-1.06247 0,-0.56224 0.33073,-1.02526 1.55443,-1.02526 h 1.85622 v 0.89297 c -0.30179,0.79375 -1.0666,1.19476 -1.94304,1.19476 z m 7.68946,-5.35368 v -1.12448 h -1.71153 v 7.68945 h 1.79834 v -3.72897 c 0,-1.57096 0.86403,-2.37712 2.23243,-2.37712 0.12815,0 0.26044,0.0165 0.41754,0.0455 v -1.71566 c -1.28157,0 -2.22002,0.40515 -2.73678,1.2113 z m 8.45426,4.86585 c -0.27285,0.21497 -0.63665,0.31833 -1.00872,0.31833 -0.6904,0 -1.0666,-0.40515 -1.0666,-1.15342 v -3.65869 h 2.05879 v -1.43867 h -2.05879 v -1.757 h -1.79834 v 1.757 h -1.26918 v 1.43867 h 1.26918 v 3.70003 c 0,1.69912 0.96325,2.59209 2.64996,2.59209 0.64493,0 1.29398,-0.1695 1.72806,-0.51676 z m 5.40122,1.79834 c 2.38952,0 4.10104,-1.64124 4.10104,-3.94394 0,-2.30271 -1.71152,-3.93155 -4.10104,-3.93155 -2.36471,0 -4.09277,1.62884 -4.09277,3.93155 0,2.3027 1.72806,3.94394 4.09277,3.94394 z m 0,-1.53789 c -1.29811,0 -2.2779,-0.93844 -2.2779,-2.40605 0,-1.46762 0.97979,-2.40606 2.2779,-2.40606 1.30638,0 2.28617,0.93844 2.28617,2.40606 0,1.46761 -0.97979,2.40605 -2.28617,2.40605 z m 0,0"
       style="fill:#fffffc;fill-opacity:1;fill-rule:nonzero;stroke:none;stroke-width:0.352778"
       aria-label="Carto" />
    <path
       id="path53"
       d="m 181.06341,119.08011 -2.12907,5.62239 -2.14147,-5.62239 h -0.51677 l -2.15387,5.63479 -2.10426,-5.63479 h -0.58291 l 2.39778,6.31279 h 0.55397 l 2.14148,-5.4777 2.12906,5.4777 h 0.57051 l 2.39365,-6.31279 z m 4.08864,-0.0496 c -0.97979,0 -1.89756,0.33899 -2.52595,0.89297 l 0.30179,0.43821 c 0.5209,-0.47129 1.30638,-0.79788 2.17455,-0.79788 1.2361,0 1.87689,0.62838 1.87689,1.80247 v 0.5085 h -2.16628 c -1.75286,0 -2.35644,0.81028 -2.35644,1.76527 0,1.07486 0.85576,1.80247 2.27376,1.80247 1.09967,0 1.87275,-0.45062 2.27376,-1.17409 v 1.12448 h 0.57878 v -4.00596 c 0,-1.55856 -0.86817,-2.35644 -2.43086,-2.35644 z m -0.339,5.91592 c -1.11208,0 -1.75286,-0.5085 -1.75286,-1.33119 0,-0.7276 0.45888,-1.26917 1.76526,-1.26917 h 2.15388 v 1.18235 c -0.36381,0.90951 -1.09968,1.41801 -2.16628,1.41801 z m 9.39891,-5.86631 -2.53008,5.6472 -2.52594,-5.6472 h -0.64079 l 2.84014,6.28798 -0.339,0.76068 c -0.38447,0.8599 -0.81029,1.12862 -1.38906,1.12862 -0.47129,0 -0.8475,-0.1571 -1.17409,-0.4961 l -0.30179,0.45889 c 0.3638,0.3762 0.8971,0.56637 1.46347,0.56637 0.8351,0 1.46348,-0.37207 1.97198,-1.53375 l 3.24114,-7.17269 z m 0,0"
       style="fill:#fffffc;fill-opacity:1;fill-rule:nonzero;stroke:none;stroke-width:0.352778"
       aria-label="way" />
    <path
       id="path54"
       d="m 0,0 c 4.071,-0.114 6.742,-3.887 5.451,-7.86 -1.674,-5.15 -3.406,-10.282 -5.118,-15.419 -1.311,-3.933 -2.628,-7.864 -3.945,-11.795 -0.937,-2.799 -2.945,-4.379 -5.573,-4.389 -2.671,-0.011 -4.712,1.586 -5.661,4.428 -1.041,3.115 -2.1,6.224 -3.114,9.347 -0.306,0.939 -0.87,1.501 -1.807,1.807 -3.301,1.078 -6.596,2.173 -9.877,3.308 -2.17,0.751 -3.489,2.33 -3.824,4.578 -0.335,2.248 0.458,4.145 2.32,5.495 0.563,0.408 1.238,0.699 1.903,0.922 8.918,2.995 17.841,5.972 26.769,8.939 C -1.669,-0.371 -0.826,-0.211 0,0 m 2.085,-6.149 c 0.094,1.822 -1.292,2.708 -3.109,2.103 -8.996,-2.99 -17.985,-5.999 -26.983,-8.982 -1.065,-0.353 -1.838,-0.944 -1.832,-2.114 0.005,-1.163 0.756,-1.761 1.835,-2.108 3.126,-1.007 6.223,-2.102 9.349,-3.104 2.172,-0.697 3.544,-2.104 4.241,-4.261 0.999,-3.091 2.07,-6.158 3.07,-9.249 0.341,-1.054 0.858,-1.833 2.067,-1.878 1.089,-0.041 1.722,0.494 2.182,1.871 2.988,8.963 5.97,17.929 8.951,26.895 0.106,0.317 0.18,0.645 0.229,0.827"
       style="fill:#fffffc;fill-opacity:1;fill-rule:nonzero;stroke:none"
       transform="matrix(0.35277776,0,0,-0.35277776,166.16107,117.77648)"
       clip-path="url(#clipPath55)" />
  </g>
</svg>
