<?xml version="1.0" encoding="UTF-8" standalone="no"?>
<!-- Created with Inkscape (http://www.inkscape.org/) -->

<svg
   width="52.999985"
   height="23.000025"
   viewBox="0 0 14.022913 6.0854232"
   version="1.1"
   id="svg1"
   inkscape:version="1.3 (0e150ed6c4, 2023-07-21)"
   sodipodi:docname="logo.svg"
   inkscape:export-filename="logo-800.png"
   inkscape:export-xdpi="1449.057"
   inkscape:export-ydpi="1449.057"
   xmlns:inkscape="http://www.inkscape.org/namespaces/inkscape"
   xmlns:sodipodi="http://sodipodi.sourceforge.net/DTD/sodipodi-0.dtd"
   xmlns="http://www.w3.org/2000/svg"
   xmlns:svg="http://www.w3.org/2000/svg">
  <sodipodi:namedview
     id="namedview1"
     pagecolor="#ffffff"
     bordercolor="#cccccc"
     borderopacity="1"
     inkscape:showpageshadow="0"
     inkscape:pageopacity="1"
     inkscape:pagecheckerboard="0"
     inkscape:deskcolor="#d1d1d1"
     inkscape:document-units="mm"
     showgrid="true"
     inkscape:zoom="14.099312"
     inkscape:cx="18.050526"
     inkscape:cy="8.5465162"
     inkscape:window-width="1882"
     inkscape:window-height="1061"
     inkscape:window-x="0"
     inkscape:window-y="0"
     inkscape:window-maximized="1"
     inkscape:current-layer="layer1">
    <inkscape:grid
       id="grid8"
       units="px"
       originx="0"
       originy="0"
       spacingx="0.26458334"
       spacingy="0.26458333"
       empcolor="#0099e5"
       empopacity="0.30196078"
       color="#0099e5"
       opacity="0.14901961"
       empspacing="5"
       dotted="false"
       gridanglex="30"
       gridanglez="30"
       visible="true" />
  </sodipodi:namedview>
  <defs
     id="defs1" />
  <g
     inkscape:label="Calque 1"
     inkscape:groupmode="layer"
     id="layer1"
     transform="translate(-91.03331,-128.3625)">
    <rect
       style="fill:#00387b;fill-opacity:1;stroke:none;stroke-width:0.195789;stroke-dasharray:none;stroke-dashoffset:0;stroke-opacity:1"
       id="rect2"
       width="14.022913"
       height="6.085423"
       x="91.03331"
       y="128.3625" />
    <path
       style="fill:none;fill-opacity:1;stroke:#ffffff;stroke-width:0.264583;stroke-dasharray:0.793749, 0.264583;stroke-dashoffset:0;stroke-opacity:1"
       d="m 93.662497,133.08542 c -1.058332,0 -2.116666,0 -2.116667,-0.79375 -10e-7,-0.79375 1.058334,-0.79375 2.116666,-0.79375 h 8.731254 c 1.05833,0 2.11666,0 2.11666,-0.79375 0,-0.79375 -1.05833,-0.79375 -2.11666,-0.79375 H 101.6"
       id="path3"
       sodipodi:nodetypes="czzzzc" />
    <path
       style="font-weight:900;font-size:3.52777px;font-family:'Noto Sans';-inkscape-font-specification:'Noto Sans, Heavy';text-align:end;text-anchor:end;fill:#ffffff;fill-opacity:1;stroke:none;stroke-width:0.264583;stroke-opacity:1"
       d="m 92.985192,131.17767 q -0.444499,0 -0.709082,-0.23989 -0.264583,-0.23988 -0.264583,-0.76199 0,-0.35631 0.134055,-0.57856 0.134056,-0.22578 0.363361,-0.33161 0.232833,-0.10936 0.529165,-0.10936 0.179917,0 0.338666,0.0388 0.162278,0.0388 0.299861,0.10936 l -0.197555,0.49741 q -0.119945,-0.0529 -0.225778,-0.0847 -0.102305,-0.0317 -0.215194,-0.0317 -0.151694,0 -0.246944,0.11994 -0.09525,0.11994 -0.09525,0.36689 0,0.254 0.09525,0.36336 0.09878,0.10583 0.250472,0.10583 0.144639,0 0.289277,-0.0459 0.148167,-0.0459 0.278694,-0.127 v 0.53622 q -0.119944,0.0776 -0.271638,0.127 -0.151694,0.0459 -0.352777,0.0459 z m 1.964966,-2.02141 q 0.370416,0 0.578554,0.18344 0.208139,0.18345 0.208139,0.52211 v 1.28058 h -0.465666 l -0.130527,-0.25752 h -0.01411 q -0.08114,0.1023 -0.169333,0.16933 -0.08467,0.0635 -0.197556,0.0917 -0.112888,0.0318 -0.275166,0.0318 -0.253999,0 -0.423332,-0.15522 -0.169333,-0.15522 -0.169333,-0.47625 0,-0.31397 0.215194,-0.46566 0.218722,-0.1517 0.631471,-0.16934 l 0.324555,-0.0106 v -0.0282 q 0,-0.13053 -0.0635,-0.18345 -0.0635,-0.0564 -0.172861,-0.0564 -0.116416,0 -0.257527,0.0423 -0.141111,0.0388 -0.285749,0.10231 l -0.194028,-0.4445 q 0.169333,-0.0882 0.380999,-0.13053 0.215194,-0.0459 0.479777,-0.0459 z m -0.0388,1.12183 q -0.183444,0.007 -0.261055,0.067 -0.07408,0.0564 -0.07408,0.16228 0,0.0988 0.05292,0.14816 0.05292,0.0459 0.141111,0.0459 0.123472,0 0.208138,-0.0776 0.08819,-0.0776 0.08819,-0.20108 v -0.15169 z m 2.46238,-1.12183 q 0.05644,0 0.116416,0.007 0.05997,0.007 0.08819,0.0141 l -0.05997,0.635 q -0.03528,-0.007 -0.08819,-0.0141 -0.04939,-0.007 -0.14111,-0.007 -0.08467,0 -0.183445,0.0247 -0.09525,0.0247 -0.165805,0.10936 -0.07055,0.0811 -0.07055,0.25753 v 0.95955 H 96.19547 v -1.95085 h 0.500943 l 0.105833,0.31044 h 0.03175 q 0.08114,-0.14464 0.225777,-0.24341 0.148167,-0.10231 0.313972,-0.10231 z m 1.432274,1.48872 q 0.09172,0 0.165806,-0.0176 0.07761,-0.0212 0.158749,-0.0494 v 0.49036 q -0.109361,0.0459 -0.232833,0.0776 -0.123472,0.0318 -0.313971,0.0318 -0.1905,0 -0.335138,-0.06 -0.141111,-0.06 -0.22225,-0.20461 -0.08114,-0.14817 -0.08114,-0.41275 v -0.80433 h -0.23636 v -0.27517 l 0.29986,-0.21166 0.172861,-0.40922 h 0.440971 v 0.39158 h 0.479777 v 0.50447 h -0.479777 v 0.75847 q 0,0.1905 0.183444,0.1905 z m 2.529418,-0.48331 q 0,0.49036 -0.26106,0.75495 -0.26105,0.26105 -0.71614,0.26105 -0.28222,0 -0.500946,-0.11641 -0.218721,-0.11995 -0.345721,-0.34573 -0.123472,-0.2293 -0.123472,-0.55386 0,-0.4833 0.261055,-0.74436 0.261055,-0.26105 0.719674,-0.26105 0.28222,0 0.49741,0.11642 0.21872,0.11641 0.3422,0.34219 0.127,0.22225 0.127,0.5468 z m -1.26295,0 q 0,0.25048 0.067,0.38453 0.067,0.13053 0.22578,0.13053 0.15522,0 0.21872,-0.13053 0.067,-0.13405 0.067,-0.38453 0,-0.25047 -0.067,-0.37747 -0.0635,-0.127 -0.22225,-0.127 -0.15169,0 -0.22225,0.127 -0.067,0.127 -0.067,0.37747 z"
       id="text1"
       aria-label="carto" />
    <path
       style="font-weight:900;font-size:3.52777px;font-family:'Noto Sans';-inkscape-font-specification:'Noto Sans, Heavy';text-align:end;text-anchor:end;fill:#ffffff;fill-opacity:1;stroke:none;stroke-width:0.264583;stroke-opacity:1"
       d="m 95.105356,132.12234 q 0.05644,0 0.116416,0.007 0.05997,0.007 0.08819,0.0141 l -0.05997,0.635 q -0.03528,-0.007 -0.08819,-0.0141 -0.04939,-0.007 -0.14111,-0.007 -0.08467,0 -0.183444,0.0247 -0.09525,0.0247 -0.165806,0.10936 -0.07055,0.0811 -0.07055,0.25753 v 0.95955 h -0.673804 v -1.95085 h 0.500943 l 0.105833,0.31044 h 0.03175 q 0.08114,-0.14464 0.225778,-0.24341 0.148166,-0.10231 0.313971,-0.10231 z m 2.268354,1.00541 q 0,0.49036 -0.261055,0.75495 -0.261055,0.26105 -0.716137,0.26105 -0.282222,0 -0.500944,-0.11641 -0.218721,-0.11995 -0.345721,-0.34573 -0.123472,-0.2293 -0.123472,-0.55386 0,-0.4833 0.261055,-0.74435 0.261055,-0.26106 0.719665,-0.26106 0.282222,0 0.497416,0.11642 0.218721,0.11641 0.342193,0.34219 0.127,0.22225 0.127,0.5468 z m -1.262942,0 q 0,0.25048 0.06703,0.38453 0.06703,0.13053 0.225777,0.13053 0.155222,0 0.218722,-0.13053 0.06703,-0.13405 0.06703,-0.38453 0,-0.25047 -0.06703,-0.37747 -0.0635,-0.127 -0.222249,-0.127 -0.151695,0 -0.22225,0.127 -0.06703,0.127 -0.06703,0.37747 z m 3.545406,-0.97013 v 1.95085 h -0.507999 l -0.08467,-0.24341 h -0.03881 q -0.09172,0.14816 -0.250471,0.21519 -0.15875,0.0635 -0.338666,0.0635 -0.1905,0 -0.345722,-0.0741 -0.155222,-0.0741 -0.246944,-0.23283 -0.08819,-0.15875 -0.08819,-0.40922 v -1.27 h 0.673804 v 1.06538 q 0,0.1905 0.05292,0.28928 0.05644,0.0988 0.179916,0.0988 0.190499,0 0.253999,-0.15522 0.06703,-0.15522 0.06703,-0.4445 v -0.85372 z m 1.421696,1.45344 q 0.0917,0 0.1658,-0.0176 0.0776,-0.0212 0.15875,-0.0494 v 0.49036 q -0.10936,0.0459 -0.23283,0.0776 -0.12347,0.0318 -0.31397,0.0318 -0.1905,0 -0.33514,-0.06 -0.14111,-0.06 -0.22225,-0.20461 -0.0811,-0.14817 -0.0811,-0.41275 v -0.80433 h -0.236361 v -0.27517 l 0.299861,-0.21166 0.17286,-0.40922 h 0.44097 v 0.39158 h 0.47978 v 0.50447 h -0.47978 v 0.75847 q 0,0.1905 0.18345,0.1905 z m 1.54516,-1.48872 q 0.42686,0 0.6738,0.22225 0.24694,0.22225 0.24694,0.67028 v 0.29986 h -1.20297 q 0.007,0.15169 0.11289,0.25047 0.10936,0.0988 0.31397,0.0988 0.18345,0 0.33514,-0.0353 0.1517,-0.0353 0.31397,-0.11289 v 0.4833 q -0.14111,0.0741 -0.31044,0.10936 -0.1658,0.0353 -0.4198,0.0353 -0.29634,0 -0.52917,-0.1023 -0.2293,-0.10584 -0.36336,-0.32809 -0.13406,-0.22225 -0.13406,-0.56797 0,-0.35277 0.11995,-0.57855 0.12347,-0.22578 0.33866,-0.33514 0.21873,-0.10936 0.50448,-0.10936 z m 0.0247,0.45861 q -0.11994,0 -0.20108,0.0741 -0.0776,0.0741 -0.0917,0.23636 h 0.57855 q -0.004,-0.13052 -0.0776,-0.21872 -0.0706,-0.0917 -0.20814,-0.0917 z"
       id="text1-6"
       aria-label="route" />
  </g>
</svg>
