<?xml version="1.0" encoding="UTF-8" standalone="no"?>
<!-- Created with Inkscape (http://www.inkscape.org/) -->

<svg
   width="54.498501"
   height="23.66799"
   viewBox="0 0 14.419396 6.2621556"
   version="1.1"
   id="svg1"
   inkscape:version="1.3 (0e150ed6c4, 2023-07-21)"
   sodipodi:docname="logo.svg"
   inkscape:export-filename="logo-800.png"
   inkscape:export-xdpi="1409.2131"
   inkscape:export-ydpi="1409.2131"
   xmlns:inkscape="http://www.inkscape.org/namespaces/inkscape"
   xmlns:sodipodi="http://sodipodi.sourceforge.net/DTD/sodipodi-0.dtd"
   xmlns="http://www.w3.org/2000/svg"
   xmlns:svg="http://www.w3.org/2000/svg">
  <sodipodi:namedview
     id="namedview1"
     pagecolor="#ffffff"
     bordercolor="$grey-color"
     borderopacity="1"
     inkscape:showpageshadow="0"
     inkscape:pageopacity="1"
     inkscape:pagecheckerboard="0"
     inkscape:deskcolor="#d1d1d1"
     inkscape:document-units="mm"
     showgrid="true"
     inkscape:zoom="14.364952"
     inkscape:cx="22.102406"
     inkscape:cy="7.8315611"
     inkscape:window-width="1882"
     inkscape:window-height="1061"
     inkscape:window-x="0"
     inkscape:window-y="0"
     inkscape:window-maximized="1"
     inkscape:current-layer="layer1">
    <inkscape:grid
       id="grid8"
       units="px"
       originx="-0.8708033"
       originy="-1.4107733"
       spacingx="0.26458334"
       spacingy="0.26458333"
       empcolor="#0099e5"
       empopacity="0.30196078"
       color="#0099e5"
       opacity="0.14901961"
       empspacing="5"
       dotted="false"
       gridanglex="30"
       gridanglez="30"
       visible="true" />
  </sodipodi:namedview>
  <defs
     id="defs1" />
  <g
     inkscape:label="Calque 1"
     inkscape:groupmode="layer"
     id="layer1"
     transform="translate(-91.26371,-128.73576)">
    <rect
       style="fill:#00387b;fill-opacity:1;stroke:none;stroke-width:0.2014;stroke-dasharray:none;stroke-dashoffset:0;stroke-opacity:1"
       id="rect2"
       width="14.419392"
       height="6.2621555"
       x="91.26371"
       y="128.73576" />
    <g
       id="g3"
       transform="translate(0.29634903)">
      <path
         style="fill:none;fill-opacity:1;stroke:#ffffff;stroke-width:0.264583;stroke-dasharray:0.793749, 0.264583;stroke-dashoffset:0;stroke-opacity:1"
         d="m 101.74894,130.21458 h 0.79375 c 1.05833,0 2.11666,0 2.11666,0.79375 0,0.79375 -1.05833,0.79375 -2.11666,0.79375 h -8.731257 c -1.058332,0 -2.116667,0 -2.116666,0.79375 10e-7,0.79375 1.058335,0.79375 2.116667,0.79375 h 1.604146"
         id="path3"
         sodipodi:nodetypes="czzzzcsc" />
      <path
         d="m 96.931748,133.2767 c -0.01411,-0.0588 -0.02822,-0.127 -0.04233,-0.20461 -0.01411,-0.0776 -0.02705,-0.15052 -0.03881,-0.21873 -0.0094,-0.0705 -0.01646,-0.12347 -0.02117,-0.15875 h -0.01058 c -0.0047,0.0353 -0.01296,0.0882 -0.02469,0.15875 -0.01176,0.0706 -0.02587,0.14582 -0.04233,0.22578 -0.01411,0.08 -0.0294,0.15405 -0.04586,0.22225 l -0.197555,0.82903 h -0.709081 l -0.532694,-1.95086 h 0.663221 l 0.15875,0.74789 c 0.01176,0.0541 0.02352,0.11992 0.03528,0.19755 0.01176,0.0753 0.02234,0.15287 0.03175,0.23284 0.01176,0.0776 0.01882,0.14816 0.02117,0.21166 h 0.01058 c 0.0023,-0.047 0.0082,-0.10109 0.01764,-0.16228 0.0094,-0.0611 0.01881,-0.12228 0.02822,-0.18344 0.01176,-0.0611 0.02234,-0.11523 0.03175,-0.16228 0.0094,-0.047 0.01529,-0.0787 0.01764,-0.0952 l 0.179916,-0.78669 h 0.74436 l 0.165805,0.79728 c 0.0094,0.0447 0.01999,0.10229 0.03175,0.17286 0.01411,0.0682 0.02705,0.13993 0.0388,0.21519 0.01411,0.0753 0.02352,0.14346 0.02822,0.20461 h 0.01058 c 0.0047,-0.0635 0.01179,-0.1352 0.02117,-0.21519 0.0094,-0.0823 0.01999,-0.1611 0.03175,-0.23636 0.01176,-0.0776 0.02352,-0.14111 0.03528,-0.1905 l 0.172861,-0.74789 h 0.64911 l -0.536221,1.95086 h -0.719666 z m 2.68816,-1.13242 c 0.246944,0 0.439792,0.0611 0.578552,0.18345 0.13876,0.12229 0.20814,0.29633 0.20814,0.52211 v 1.28058 h -0.465665 l -0.130527,-0.25753 h -0.01411 c -0.05409,0.0682 -0.110538,0.12464 -0.169333,0.16933 -0.05645,0.0423 -0.122298,0.0729 -0.197555,0.0917 -0.07526,0.0212 -0.166981,0.0318 -0.275166,0.0318 -0.169333,0 -0.310443,-0.0517 -0.423332,-0.15522 -0.112889,-0.10348 -0.169333,-0.26223 -0.169333,-0.47625 0,-0.20931 0.07173,-0.36453 0.215194,-0.46566 0.145815,-0.10113 0.356305,-0.15758 0.631471,-0.16933 l 0.324555,-0.0106 v -0.0282 c 0,-0.087 -0.02117,-0.14817 -0.0635,-0.18344 -0.04233,-0.0376 -0.09995,-0.0564 -0.172861,-0.0564 -0.07761,0 -0.163453,0.0141 -0.257527,0.0423 -0.09407,0.0259 -0.189324,0.06 -0.28575,0.10231 l -0.194027,-0.4445 c 0.112889,-0.0588 0.239888,-0.10231 0.380999,-0.13053 0.143463,-0.0306 0.303388,-0.0459 0.479777,-0.0459 z m -0.03881,1.12183 c -0.122296,0.005 -0.209314,0.027 -0.261054,0.067 -0.04939,0.0377 -0.07408,0.0918 -0.07408,0.16228 0,0.0659 0.01764,0.11525 0.05292,0.14816 0.03528,0.0306 0.08232,0.0459 0.141111,0.0459 0.08232,0 0.151694,-0.0259 0.208138,-0.0776 0.05879,-0.0517 0.08819,-0.11876 0.08819,-0.20108 v -0.15169 z m 1.047752,-1.08655 h 0.70908 l 0.33161,0.80394 c 0.007,0.0235 0.0129,0.0553 0.0176,0.0953 0.007,0.04 0.0118,0.0788 0.0141,0.11642 h 0.0141 c 0.005,-0.0471 0.0105,-0.087 0.0176,-0.11994 0.009,-0.0353 0.0176,-0.0647 0.0247,-0.0882 l 0.33867,-0.80747 h 0.68791 l -0.77258,1.75997 c -0.0588,0.15758 -0.12818,0.29046 -0.20814,0.39864 -0.0776,0.10818 -0.17403,0.18932 -0.28927,0.24341 -0.11524,0.0541 -0.25871,0.0811 -0.43039,0.0811 -0.0611,0 -0.11405,-0.004 -0.15875,-0.0106 -0.0447,-0.005 -0.0835,-0.0105 -0.11642,-0.0176 v -0.52917 c 0.0259,0.005 0.0564,0.009 0.0917,0.0141 0.0376,0.005 0.0764,0.007 0.11641,0.007 0.11054,0 0.19168,-0.0329 0.24342,-0.0988 0.0541,-0.0635 0.0976,-0.13761 0.13053,-0.22225 l 0.007,-0.0176 z"
         id="text3"
         style="font-weight:900;font-size:3.52777px;font-family:'Noto Sans';-inkscape-font-specification:'Noto Sans, Heavy';text-align:end;text-anchor:end;fill:#ffffff;stroke:none;stroke-width:0.2"
         aria-label="way"
         sodipodi:nodetypes="ccccccccccccccccccccccccccccccccccccccsccccccssscccscsccccccccscscscccccccccccccccsccccscccc" />
      <path
         style="font-weight:900;font-size:3.52777px;font-family:'Noto Sans';-inkscape-font-specification:'Noto Sans, Heavy';text-align:end;text-anchor:end;fill:#ffffff;fill-opacity:1;stroke:none;stroke-width:0.264583;stroke-opacity:1"
         d="m 93.218366,131.42078 q -0.444499,0 -0.709082,-0.23989 -0.264583,-0.23988 -0.264583,-0.76199 0,-0.35631 0.134055,-0.57856 0.134056,-0.22578 0.363361,-0.33161 0.232833,-0.10936 0.529165,-0.10936 0.179917,0 0.338666,0.0388 0.162278,0.0388 0.299861,0.10936 l -0.197555,0.49741 q -0.119945,-0.0529 -0.225778,-0.0847 -0.102305,-0.0317 -0.215194,-0.0317 -0.151694,0 -0.246944,0.11994 -0.09525,0.11994 -0.09525,0.36689 0,0.254 0.09525,0.36336 0.09878,0.10583 0.250472,0.10583 0.144639,0 0.289277,-0.0459 0.148167,-0.0459 0.278694,-0.127 v 0.53622 q -0.119944,0.0776 -0.271638,0.127 -0.151694,0.0459 -0.352777,0.0459 z m 1.964966,-2.02141 q 0.370416,0 0.578554,0.18344 0.208139,0.18345 0.208139,0.52211 v 1.28058 h -0.465666 l -0.130527,-0.25752 h -0.01411 q -0.08114,0.1023 -0.169333,0.16933 -0.08467,0.0635 -0.197556,0.0917 -0.112888,0.0318 -0.275166,0.0318 -0.253999,0 -0.423332,-0.15522 -0.169333,-0.15522 -0.169333,-0.47625 0,-0.31397 0.215194,-0.46566 0.218722,-0.1517 0.631471,-0.16934 l 0.324555,-0.0106 v -0.0282 q 0,-0.13053 -0.0635,-0.18345 -0.0635,-0.0564 -0.172861,-0.0564 -0.116416,0 -0.257527,0.0423 -0.141111,0.0388 -0.285749,0.10231 l -0.194028,-0.4445 q 0.169333,-0.0882 0.380999,-0.13053 0.215194,-0.0459 0.479777,-0.0459 z m -0.0388,1.12183 q -0.183444,0.007 -0.261055,0.067 -0.07408,0.0564 -0.07408,0.16228 0,0.0988 0.05292,0.14816 0.05292,0.0459 0.141111,0.0459 0.123472,0 0.208138,-0.0776 0.08819,-0.0776 0.08819,-0.20108 v -0.15169 z m 2.46238,-1.12183 q 0.05644,0 0.116416,0.007 0.05997,0.007 0.08819,0.0141 l -0.05997,0.635 q -0.03528,-0.007 -0.08819,-0.0141 -0.04939,-0.007 -0.14111,-0.007 -0.08467,0 -0.183445,0.0247 -0.09525,0.0247 -0.165805,0.10936 -0.07055,0.0811 -0.07055,0.25753 v 0.95955 h -0.673804 v -1.95085 h 0.500943 l 0.105833,0.31044 h 0.03175 q 0.08114,-0.14464 0.225777,-0.24341 0.148167,-0.10231 0.313972,-0.10231 z m 1.432274,1.48872 q 0.09172,0 0.165806,-0.0176 0.07761,-0.0212 0.158749,-0.0494 v 0.49036 q -0.109361,0.0459 -0.232833,0.0776 -0.123472,0.0318 -0.313971,0.0318 -0.1905,0 -0.335138,-0.06 -0.141111,-0.06 -0.22225,-0.20461 -0.08114,-0.14817 -0.08114,-0.41275 v -0.80433 h -0.23636 v -0.27517 l 0.29986,-0.21166 0.172861,-0.40922 h 0.440971 v 0.39158 h 0.479777 v 0.50447 h -0.479777 v 0.75847 q 0,0.1905 0.183444,0.1905 z m 2.529424,-0.48331 q 0,0.49036 -0.26106,0.75495 -0.26105,0.26105 -0.71614,0.26105 -0.28222,0 -0.50095,-0.11641 -0.218723,-0.11995 -0.345723,-0.34573 -0.123472,-0.2293 -0.123472,-0.55386 0,-0.4833 0.261055,-0.74436 0.26106,-0.26105 0.71968,-0.26105 0.28222,0 0.49741,0.11642 0.21872,0.11641 0.3422,0.34219 0.127,0.22225 0.127,0.5468 z m -1.26295,0 q 0,0.25048 0.067,0.38453 0.067,0.13053 0.22578,0.13053 0.15522,0 0.21872,-0.13053 0.067,-0.13405 0.067,-0.38453 0,-0.25047 -0.067,-0.37747 -0.0635,-0.127 -0.22225,-0.127 -0.15169,0 -0.22225,0.127 -0.067,0.127 -0.067,0.37747 z"
         id="text1"
         aria-label="carto" />
    </g>
  </g>
</svg>
